<svg width="150" height="22" viewBox="0 0 150 22" fill="none" xmlns="http://www.w3.org/2000/svg">
<g clip-path="url(#clip0_1072_1234)">
<path d="M88.8047 0.3125H139.216C145.169 0.3125 150.001 5.00026 150.001 10.7757C150.001 16.5511 145.169 21.2388 139.216 21.2388H88.8047V0.3125Z" fill="#2DBCB0"/>
<path d="M-0.00062165 0.911427L0.099239 0.826172C2.96058 0.875258 4.79136 0.89851 5.59157 0.89851C8.32776 0.89851 10.763 0.873967 12.8987 0.826172L12.9613 0.911427C12.7522 1.68777 12.5978 2.90589 12.4979 4.56579L12.4234 4.66267H11.8109L11.6977 4.56579C11.7057 4.49345 11.7097 4.42886 11.7097 4.37202C11.7097 3.68481 11.6551 3.0286 11.5473 2.40598C11.0213 2.17993 10.2943 2.03137 9.36365 1.96291C8.43294 1.89445 7.73525 1.85957 7.2679 1.85957C6.60882 1.85957 5.766 1.90349 4.74076 1.99262L4.69017 3.93541L4.65288 6.15722L4.6156 8.62188C5.51701 8.67096 6.34652 8.69422 7.10546 8.69422C7.8644 8.69422 8.51549 8.66967 9.03211 8.62188C9.54872 8.57279 9.8523 8.52241 9.93884 8.47074C10.0267 8.41778 10.0933 8.31702 10.1386 8.16718C10.1838 8.01734 10.2238 7.75253 10.2571 7.37146L10.3077 6.61837L10.4075 6.52149H10.9827L11.0826 6.61837C11.0653 7.50064 11.0453 8.38678 11.02 9.27679L11.0826 12.0076L10.9827 12.1044H10.4075L10.3077 12.0076L10.2198 11.279C10.1452 10.7132 10.0906 10.3748 10.0573 10.265C10.0241 10.1552 9.94683 10.0609 9.82567 9.97951C9.7045 9.89813 9.39427 9.83354 8.89363 9.78574C8.393 9.73666 7.70463 9.71341 6.82852 9.71341C6.34519 9.71341 5.60622 9.73407 4.61427 9.77412C4.573 10.4536 4.55169 11.5864 4.55169 13.1727C4.55169 14.8727 4.573 16.1231 4.61427 16.9239H6.91639C8.9429 16.9239 10.2118 16.8994 10.7204 16.8516C11.229 16.8025 11.7124 16.6863 12.1717 16.499C12.2463 16.313 12.3701 15.8815 12.5405 15.2059C12.711 14.5303 12.8095 14.1079 12.8348 13.9374L12.96 13.8522H13.5605L13.6603 13.9374C13.5858 14.2849 13.5125 14.892 13.442 15.7588C13.3714 16.6243 13.3354 17.3657 13.3354 17.9806L13.2476 18.0775C11.6538 18.0284 9.56869 18.0051 6.99095 18.0051L3.5877 17.9806C2.79548 17.9806 1.96996 18.0129 1.10983 18.0775L1.00997 17.9806V17.5802L1.10983 17.4587C1.60247 17.2159 1.88342 17.0647 1.95398 17.004C2.02455 16.9433 2.08314 16.2354 2.12974 14.8791C2.17501 13.5241 2.19898 12.4894 2.19898 11.7776V7.32238L2.18699 4.56708C2.18699 3.96771 2.179 3.48072 2.16169 3.10482C2.14439 2.72892 2.11642 2.45894 2.07382 2.29747C2.03254 2.13601 1.98461 2.02233 1.93002 1.95774C1.87543 1.89316 1.78755 1.8389 1.66772 1.79369C1.54655 1.74977 1.34017 1.71102 1.04858 1.67873L0.0979075 1.60639L-0.00195312 1.52113V0.914011L-0.00062165 0.911427Z" fill="#F4F4F4"/>
<path d="M17.3522 6.41029L17.5905 6.56788C17.5399 7.11041 17.5066 7.82217 17.4907 8.70443C18.1577 8.16965 18.7915 7.6284 19.392 7.07812C19.5678 6.9244 19.7315 6.81073 19.886 6.73839C20.0404 6.66605 20.2974 6.58855 20.6556 6.50717C21.0137 6.42579 21.3812 6.38574 21.7567 6.38574C22.3905 6.38574 23.0056 6.51104 23.6021 6.76164C24.1986 7.01224 24.6487 7.30934 24.9536 7.65424C25.2585 7.99785 25.4689 8.40475 25.586 8.87365C25.7032 9.34256 25.7618 9.92126 25.7618 10.6098V12.7463C25.7618 12.8845 25.7831 13.8921 25.8244 15.769C25.8403 16.5376 25.9282 16.9949 26.0867 17.1408C26.2451 17.2868 26.7617 17.3592 27.6378 17.3592L27.7377 17.456V17.9779L27.6378 18.0748C26.578 18.0102 25.8616 17.9779 25.4862 17.9779C25.2691 17.9779 24.6607 18.0102 23.6594 18.0748L23.5089 17.9417C23.6168 16.8902 23.6714 15.5184 23.6714 13.8262V12.2361C23.6714 11.2815 23.6487 10.593 23.6021 10.1719C23.5569 9.75075 23.4171 9.36839 23.1827 9.02479C22.9497 8.68118 22.6368 8.41379 22.244 8.2239C21.8512 8.03401 21.3852 7.93842 20.8433 7.93842C20.4093 7.93842 20.0378 7.98105 19.7302 8.06631C19.4213 8.15156 19.0751 8.32595 18.6916 8.58817C18.3082 8.85169 18.0246 9.09842 17.8408 9.32835C17.6571 9.55957 17.5466 9.774 17.5093 9.97164C17.472 10.1706 17.4534 10.593 17.4534 11.2401V13.3521C17.4534 13.5304 17.4694 14.1027 17.504 15.0702C17.5373 16.0377 17.5732 16.6022 17.6105 16.7637C17.6478 16.9251 17.7037 17.0427 17.7796 17.115C17.8541 17.1873 17.946 17.2351 18.0552 17.2545C18.1631 17.2752 18.6144 17.3088 19.4066 17.3579L19.5198 17.4547V17.965L19.42 18.0748C18.3774 18.0102 17.3722 17.9779 16.4042 17.9779C15.4362 17.9779 14.4442 18.0102 13.4017 18.0748L13.2885 17.965V17.4547L13.4017 17.3579C14.2112 17.3088 14.6679 17.2726 14.7718 17.2481C14.8756 17.2235 14.9675 17.1731 15.0474 17.0969C15.1273 17.0207 15.1805 16.9032 15.2098 16.7443C15.2391 16.5867 15.2724 16.0648 15.3097 15.1787C15.347 14.2925 15.3656 13.6234 15.3656 13.17V10.779C15.3656 10.4548 15.3483 10.0143 15.315 9.45623C15.2817 8.89819 15.2551 8.55459 15.2338 8.42412C15.2125 8.29495 15.1486 8.19936 15.0394 8.13865C14.9316 8.07793 14.7145 8.04822 14.3883 8.04822L13.3378 8.0366L13.2246 7.93972V7.41785L13.3245 7.32097C14.9182 7.13496 16.2604 6.8314 17.3535 6.41029H17.3522Z" fill="#F4F4F4"/>
<path d="M30.5761 0.000315187L30.8144 0.146283C30.7225 1.07763 30.6773 2.94292 30.6773 5.74214V8.74029C31.3776 8.18225 32.0287 7.62809 32.6292 7.07781C32.805 6.92409 32.9714 6.81042 33.1299 6.73808C33.2883 6.66574 33.5453 6.58823 33.8994 6.50686C34.2536 6.42547 34.6184 6.38543 34.9939 6.38543C35.6277 6.38543 36.2428 6.51073 36.8393 6.76133C37.4358 7.01193 37.8859 7.30903 38.1908 7.65393C38.4957 7.99753 38.7061 8.40444 38.8232 8.87334C38.9404 9.34225 38.999 9.92095 38.999 10.6095V12.746C38.999 12.8842 39.0203 13.8918 39.0616 15.7687C39.0869 16.5373 39.1761 16.9946 39.3305 17.1405C39.485 17.2865 40.0003 17.3588 40.8764 17.3588L40.9762 17.4557V17.9776L40.8764 18.0745C39.8165 18.0099 39.1002 17.9776 38.7247 17.9776C38.533 17.9776 37.9245 18.0099 36.8979 18.0745L36.7475 17.9414C36.8553 16.8899 36.9099 15.5181 36.9099 13.8259V12.2358C36.9099 11.2812 36.8873 10.5927 36.8407 10.1715C36.7954 9.75044 36.6556 9.36808 36.4213 9.02448C36.1883 8.68087 35.8767 8.41348 35.4892 8.22359C35.1018 8.0337 34.6318 7.93811 34.0819 7.93811C33.532 7.93811 33.0406 8.01303 32.6612 8.16288C32.2817 8.31272 31.8956 8.5659 31.5041 8.92113C31.1113 9.27766 30.877 9.57476 30.7971 9.81373C30.7172 10.0527 30.6786 10.5113 30.6786 11.192V13.3531C30.6786 13.5314 30.6946 14.1036 30.7292 15.0712C30.7625 16.0387 30.7984 16.6032 30.8357 16.7646C30.873 16.9261 30.9289 17.0437 31.0048 17.116C31.0794 17.1883 31.1712 17.2361 31.2804 17.2555C31.3883 17.2762 31.8397 17.3098 32.6319 17.3588L32.7451 17.4557V17.966L32.6452 18.0758C31.6026 18.0112 30.5974 17.9789 29.6294 17.9789C28.6614 17.9789 27.6695 18.0112 26.6269 18.0758L26.5138 17.966V17.4557L26.6269 17.3588C27.4365 17.3098 27.8932 17.2736 27.997 17.249C28.1009 17.2245 28.1927 17.1741 28.2726 17.0979C28.3525 17.0217 28.4058 16.9041 28.4351 16.7453C28.4644 16.5877 28.4976 16.0658 28.5349 15.1797C28.5722 14.2935 28.5909 13.6244 28.5909 13.171V6.88275L28.5403 4.30959C28.515 3.41182 28.4883 2.78791 28.459 2.44043C28.4297 2.09295 28.3898 1.88627 28.3405 1.82168C28.2899 1.75709 28.2034 1.70801 28.0782 1.67571C27.9531 1.64342 27.4484 1.62663 26.5643 1.62663L26.4512 1.51683V1.00659L26.551 0.896789C28.1448 0.718528 29.4869 0.418842 30.5801 -0.000976562L30.5761 0.000315187Z" fill="#F4F4F4"/>
<path d="M42.2234 9.74794L41.7361 9.62652L41.6362 9.50509V8.00021C43.1208 6.93193 44.5641 6.39844 45.9648 6.39844C46.9235 6.39844 47.7211 6.57282 48.3548 6.9203C48.9886 7.26778 49.448 7.7031 49.7316 8.22497C50.0152 8.74684 50.1576 9.35654 50.1576 10.0515L50.0951 12.4916V16.1085C50.0951 16.602 50.131 16.9016 50.2016 17.0063C50.2722 17.1109 50.3534 17.182 50.4452 17.2181C50.5371 17.2543 50.7075 17.2853 50.9579 17.3085L51.6715 17.3693L51.7714 17.4791V17.9648L51.6715 18.0616C51.0631 18.0126 50.4958 17.9893 49.9699 17.9893C49.444 17.9893 48.8688 18.0138 48.1684 18.0616L47.9807 17.8911L48.0313 15.9367L45.3031 18.0009C44.8437 18.1869 44.3431 18.2799 43.8012 18.2799C43.1341 18.2799 42.5602 18.1624 42.0809 17.9286C41.6016 17.6935 41.2341 17.3667 40.9798 16.9456C40.7255 16.5245 40.5977 16.0155 40.5977 15.4161C40.5977 14.2264 40.9811 13.2977 41.7494 12.6298C42.5163 11.962 44.6107 11.3936 48.03 10.9247C48.03 9.72727 47.7543 8.88376 47.2044 8.39419C46.6532 7.90462 45.9156 7.65918 44.9902 7.65918C44.5069 7.65918 44.0661 7.72765 43.6707 7.86586C43.2739 8.00408 43.0476 8.11517 42.989 8.19914C42.9304 8.28439 42.7054 8.78042 42.3139 9.68594L42.2261 9.74665L42.2234 9.74794ZM48.0286 11.6662C45.6932 12.0473 44.2379 12.4554 43.6614 12.8921C43.0862 13.3287 42.7986 14.0043 42.7986 14.9188C42.7986 16.1809 43.4444 16.8125 44.7385 16.8125C45.8477 16.8125 46.9448 16.1899 48.0286 14.9434V11.6662Z" fill="#F4F4F4"/>
<path d="M54.9967 6.41029L55.235 6.56788C55.1845 7.11041 55.1512 7.82217 55.1352 8.70443C55.8023 8.16965 56.436 7.6284 57.0365 7.07812C57.2123 6.9244 57.3761 6.81073 57.5305 6.73839C57.685 6.66605 57.9419 6.58855 58.3001 6.50717C58.6583 6.42579 59.0258 6.38574 59.4012 6.38574C60.035 6.38574 60.6502 6.51104 61.2467 6.76164C61.8432 7.01224 62.2932 7.30934 62.5981 7.65424C62.903 7.99785 63.1134 8.40475 63.2306 8.87365C63.3477 9.34256 63.4063 9.92126 63.4063 10.6098V12.7463C63.4063 12.8845 63.4276 13.8921 63.4689 15.769C63.4849 16.5376 63.5727 16.9949 63.7312 17.1408C63.8896 17.2868 64.4063 17.3592 65.2824 17.3592L65.3822 17.456V17.9779L65.2824 18.0748C64.2225 18.0102 63.5062 17.9779 63.1307 17.9779C62.9137 17.9779 62.3052 18.0102 61.3039 18.0748L61.1535 17.9417C61.2613 16.8902 61.3159 15.5184 61.3159 13.8262V12.2361C61.3159 11.2815 61.2933 10.593 61.2467 10.1719C61.2014 9.75075 61.0616 9.36839 60.8272 9.02479C60.5942 8.68118 60.2813 8.41379 59.8886 8.2239C59.4958 8.03401 59.0298 7.93842 58.4878 7.93842C58.0538 7.93842 57.6823 7.98105 57.3747 8.06631C57.0658 8.15156 56.7196 8.32595 56.3362 8.58817C55.9527 8.85169 55.6691 9.09842 55.4854 9.32835C55.3016 9.55957 55.1911 9.774 55.1538 9.97164C55.1165 10.1706 55.0979 10.593 55.0979 11.2401V13.3521C55.0979 13.5304 55.1139 14.1027 55.1485 15.0702C55.1818 16.0377 55.2177 16.6022 55.255 16.7637C55.2923 16.9251 55.3482 17.0427 55.4241 17.115C55.4987 17.1873 55.5906 17.2351 55.6997 17.2545C55.8076 17.2752 56.259 17.3088 57.0512 17.3579L57.1644 17.4547V17.965L57.0645 18.0748C56.022 18.0102 55.0167 17.9779 54.0487 17.9779C53.0807 17.9779 52.0888 18.0102 51.0462 18.0748L50.9331 17.965V17.4547L51.0462 17.3579C51.8558 17.3088 52.3125 17.2726 52.4163 17.2481C52.5202 17.2235 52.612 17.1731 52.6919 17.0969C52.7718 17.0207 52.8251 16.9032 52.8544 16.7443C52.8837 16.5867 52.917 16.0648 52.9542 15.1787C52.9915 14.2925 53.0102 13.6234 53.0102 13.17V10.779C53.0102 10.4548 52.9928 10.0143 52.9596 9.45623C52.9263 8.89819 52.8996 8.55459 52.8783 8.42412C52.857 8.29495 52.7931 8.19936 52.6839 8.13865C52.5761 8.07793 52.3591 8.04822 52.0329 8.04822L50.9823 8.0366L50.8691 7.93972V7.41785L50.969 7.32097C52.5628 7.13496 53.9049 6.8314 54.998 6.41029H54.9967Z" fill="#F4F4F4"/>
<path d="M74.8283 16.679L74.3277 17.4928C73.2519 18.0676 72.0509 18.3544 70.7247 18.3544C68.8899 18.3544 67.4719 17.8248 66.4707 16.7643C65.4694 15.7037 64.9688 14.3371 64.9688 12.6617C64.9688 11.9008 65.054 11.2227 65.2257 10.6285C65.3962 10.0343 65.6132 9.54209 65.8768 9.15328C66.1404 8.76446 66.4294 8.45703 66.7463 8.23097C67.0632 8.00491 67.5984 7.68843 68.3547 7.28412C69.1096 6.8798 69.6782 6.61499 70.063 6.4884C70.4464 6.3631 70.9764 6.2998 71.6514 6.2998C72.9443 6.2998 74.0041 6.53878 74.8297 7.01543C74.6712 7.92999 74.55 8.94918 74.4662 10.0743L74.353 10.1712H73.8404L73.7272 10.0614C73.6939 9.38192 73.6473 8.92464 73.5901 8.68954C73.5315 8.45444 73.1999 8.20384 72.5954 7.93645C71.9909 7.66906 71.3465 7.53601 70.6621 7.53601C69.9778 7.53601 69.3693 7.67552 68.8354 7.95454C68.3014 8.23355 67.8993 8.69083 67.6277 9.32637C67.3561 9.96191 67.2216 10.7202 67.2216 11.6024C67.2216 12.3465 67.3295 13.0737 67.5465 13.7816C67.7635 14.4895 68.0485 15.0759 68.404 15.5423C68.7581 16.0073 69.2281 16.3819 69.8113 16.6648C70.3945 16.9477 71.0456 17.0898 71.7633 17.0898C72.2133 17.0898 72.654 17.0329 73.0828 16.9193C73.5128 16.8056 74.0068 16.6196 74.566 16.3612L74.8283 16.6764V16.679Z" fill="#F4F4F4"/>
<path d="M84.7353 16.1938L84.3345 17.0684C83.4664 17.6109 82.6928 17.9622 82.0138 18.125C81.3334 18.2865 80.7275 18.3679 80.1936 18.3679C79.1924 18.3679 78.2443 18.178 77.3469 17.7969C76.4495 17.4171 75.7199 16.7738 75.1567 15.867C74.5934 14.9602 74.3125 13.8687 74.3125 12.5899C74.3125 11.7399 74.4203 10.9739 74.6374 10.2893C74.8544 9.60592 75.0821 9.09827 75.3191 8.76629C75.5574 8.43431 75.9595 8.06616 76.5267 7.66184C77.094 7.25752 77.6945 6.93329 78.3282 6.69045C78.962 6.4476 79.6464 6.32617 80.38 6.32617C81.3813 6.32617 82.2627 6.55481 83.0257 7.01209C83.7886 7.46937 84.3252 8.05453 84.6341 8.76629C84.943 9.47804 85.0975 10.235 85.0975 11.0359C85.0975 11.2865 85.0855 11.5293 85.0602 11.7644L84.923 11.8975C84.3558 12.0189 83.5929 12.1003 82.6329 12.1403C81.6742 12.1804 81.0391 12.201 80.7315 12.201H76.7158C76.7318 13.8764 77.1659 15.1101 78.0167 15.9032C78.8675 16.6963 79.91 17.0929 81.1443 17.0929C81.7275 17.0929 82.2894 16.996 82.8273 16.801C83.3652 16.6059 83.9351 16.3359 84.5356 15.9872L84.7353 16.1938ZM76.7158 11.2284C76.8663 11.2529 77.4428 11.2813 78.4494 11.3136C79.4547 11.3459 80.199 11.3627 80.6823 11.3627C81.842 11.3627 82.5463 11.342 82.7967 11.302C82.8047 11.1082 82.8086 10.9584 82.8086 10.8525C82.8086 9.59817 82.5463 8.66553 82.0204 8.05453C81.4945 7.44353 80.7768 7.13739 79.8687 7.13739C78.8755 7.13739 78.1019 7.481 77.548 8.1695C76.9928 8.858 76.7158 9.87719 76.7158 11.2284Z" fill="#F4F4F4"/>
<path d="M92.0415 14.25C92.409 14.25 92.7286 14.3766 93.0002 14.6285C93.2718 14.8817 93.4076 15.2007 93.4076 15.587C93.4076 15.9512 93.2731 16.2625 93.0055 16.5235C92.7379 16.7831 92.4157 16.9136 92.0402 16.9136C91.6647 16.9136 91.3318 16.7857 91.0642 16.5286C90.7966 16.2729 90.6621 15.959 90.6621 15.587C90.6621 15.2149 90.7966 14.8998 91.0642 14.6401C91.3318 14.3805 91.6581 14.25 92.0402 14.25H92.0415Z" fill="#F4F4F4"/>
<path d="M111.377 6.13477L108.082 17.0681H105.01L102.956 9.43002L100.901 17.0681H97.8095L94.4941 6.13477H97.3834L99.3767 14.4627L101.534 6.13477H104.544L106.66 14.4433L108.653 6.13477H111.379H111.377Z" fill="#F4F4F4"/>
<path d="M114.185 16.5462C113.317 16.0798 112.635 15.4185 112.141 14.5633C111.646 13.7082 111.398 12.7213 111.398 11.6026C111.398 10.484 111.653 9.49838 112.161 8.64195C112.67 7.78681 113.365 7.12543 114.246 6.65911C115.128 6.19279 116.111 5.95898 117.196 5.95898C118.281 5.95898 119.263 6.19279 120.145 6.65911C121.026 7.12673 121.721 7.78681 122.23 8.64195C122.739 9.49709 122.993 10.484 122.993 11.6026C122.993 12.7213 122.732 13.7082 122.21 14.5633C121.688 15.4185 120.982 16.0798 120.094 16.5462C119.206 17.0138 118.213 17.2463 117.114 17.2463C116.016 17.2463 115.053 17.0125 114.185 16.5462ZM118.568 14.4742C119.022 14.2313 119.385 13.8658 119.656 13.3788C119.928 12.8918 120.062 12.3002 120.062 11.6026C120.062 10.5641 119.78 9.76448 119.218 9.20515C118.655 8.64582 117.967 8.3668 117.153 8.3668C116.34 8.3668 115.658 8.64711 115.108 9.20515C114.559 9.76448 114.284 10.5641 114.284 11.6026C114.284 12.6412 114.551 13.4421 115.088 14.0001C115.623 14.5594 116.298 14.8385 117.112 14.8385C117.627 14.8385 118.112 14.717 118.567 14.4729L118.568 14.4742Z" fill="#F4F4F4"/>
<path d="M128.557 6.47099C129.147 6.14288 129.822 5.97754 130.581 5.97754V8.87881H129.829C128.934 8.87881 128.259 9.0829 127.805 9.4911C127.351 9.89929 127.123 10.6098 127.123 11.6225V17.0698H124.275V6.13513H127.123V7.83249C127.49 7.25379 127.968 6.79909 128.557 6.47099Z" fill="#F4F4F4"/>
<path d="M138.352 17.0694L134.528 12.4113V17.0694H131.68V2.46484H134.528V10.7734L138.312 6.13599H142.015L137.051 11.6221L142.055 17.0694H138.352Z" fill="#F4F4F4"/>
</g>
<defs>
<clipPath id="clip0_1072_1234">
<rect width="150" height="21.2389" fill="white"/>
</clipPath>
</defs>
</svg>
