<svg width="66" height="66" viewBox="0 0 66 66" fill="none" xmlns="http://www.w3.org/2000/svg">
<path d="M4.125 14.9531C4.125 13.1753 4.83122 11.4704 6.0883 10.2133C7.34538 8.95622 9.05035 8.25 10.8281 8.25H55.1719C56.9497 8.25 58.6546 8.95622 59.9117 10.2133C61.1688 11.4704 61.875 13.1753 61.875 14.9531V44.8594C61.875 46.6372 61.1688 48.3421 59.9117 49.5992C58.6546 50.8563 56.9497 51.5625 55.1719 51.5625H27.8438V47.6582L27.9737 47.4375H55.1719C56.595 47.4375 57.75 46.2825 57.75 44.8594V14.9531C57.75 13.53 56.595 12.375 55.1719 12.375H10.8281C9.405 12.375 8.25 13.53 8.25 14.9531V27.7138C6.66043 28.6315 5.26043 29.8439 4.125 31.2861V14.9531ZM26.8125 40.2188C26.8125 43.2273 25.6174 46.1126 23.49 48.24C21.3626 50.3674 18.4773 51.5625 15.4688 51.5625C12.4602 51.5625 9.57487 50.3674 7.44751 48.24C5.32014 46.1126 4.125 43.2273 4.125 40.2188C4.125 37.2102 5.32014 34.3249 7.44751 32.1975C9.57487 30.0701 12.4602 28.875 15.4688 28.875C18.4773 28.875 21.3626 30.0701 23.49 32.1975C25.6174 34.3249 26.8125 37.2102 26.8125 40.2188ZM24.75 51.2779C22.1523 53.4648 18.8644 54.6616 15.4688 54.6562C12.0731 54.6616 8.78515 53.4648 6.1875 51.2779V59.8125C6.18759 60.1802 6.28598 60.5412 6.47249 60.8581C6.659 61.175 6.92683 61.4363 7.24826 61.6149C7.56969 61.7935 7.93302 61.8829 8.30062 61.8739C8.66822 61.8648 9.02672 61.7577 9.339 61.5636L15.4688 57.7479L21.5985 61.5636C21.9109 61.7578 22.2696 61.8649 22.6374 61.8739C23.0052 61.8828 23.3686 61.7932 23.6901 61.6144C24.0116 61.4356 24.2794 61.174 24.4658 60.8568C24.6522 60.5396 24.7503 60.1783 24.75 59.8104V51.2779ZM16.5 22.6875C16.5 22.1405 16.7173 21.6159 17.1041 21.2291C17.4909 20.8423 18.0155 20.625 18.5625 20.625H47.4375C47.9845 20.625 48.5091 20.8423 48.8959 21.2291C49.2827 21.6159 49.5 22.1405 49.5 22.6875C49.5 23.2345 49.2827 23.7591 48.8959 24.1459C48.5091 24.5327 47.9845 24.75 47.4375 24.75H18.5625C18.0155 24.75 17.4909 24.5327 17.1041 24.1459C16.7173 23.7591 16.5 23.2345 16.5 22.6875ZM35.0625 35.0625C34.5155 35.0625 33.9909 35.2798 33.6041 35.6666C33.2173 36.0534 33 36.578 33 37.125C33 37.672 33.2173 38.1966 33.6041 38.5834C33.9909 38.9702 34.5155 39.1875 35.0625 39.1875H47.4375C47.9845 39.1875 48.5091 38.9702 48.8959 38.5834C49.2827 38.1966 49.5 37.672 49.5 37.125C49.5 36.578 49.2827 36.0534 48.8959 35.6666C48.5091 35.2798 47.9845 35.0625 47.4375 35.0625H35.0625Z" fill="#6B5CE7"/>
</svg>
