<svg width="66" height="66" viewBox="0 0 66 66" fill="none" xmlns="http://www.w3.org/2000/svg">
<path d="M60.5 60.5H5.5" stroke="#6B5CE7" stroke-width="4.125" stroke-linecap="round"/>
<path d="M46.75 60.5V16.5C46.75 11.3135 46.75 8.723 45.1385 7.1115C43.527 5.5 40.9365 5.5 35.75 5.5H30.25C25.0635 5.5 22.473 5.5 20.8615 7.1115C19.25 8.723 19.25 11.3135 19.25 16.5V60.5" stroke="#6B5CE7" stroke-width="4.125"/>
<path d="M33 60.5V52.25M27.5 33H38.5M15.125 30.25H19.25M15.125 38.5H19.25M46.75 30.25H50.875M46.75 38.5H50.875M15.125 22H19.25M46.75 22H50.875" stroke="#6B5CE7" stroke-width="4.125" stroke-linecap="round"/>
<path d="M33 24.75V13.75M38.5 19.25H27.5" stroke="#6B5CE7" stroke-width="4.125" stroke-linecap="round" stroke-linejoin="round"/>
<path d="M55.6875 23.375C55.6875 23.922 55.9048 24.4466 56.2916 24.8334C56.6784 25.2202 57.203 25.4375 57.75 25.4375C58.297 25.4375 58.8216 25.2202 59.2084 24.8334C59.5952 24.4466 59.8125 23.922 59.8125 23.375H55.6875ZM59.8125 34.375C59.8125 33.828 59.5952 33.3034 59.2084 32.9166C58.8216 32.5298 58.297 32.3125 57.75 32.3125C57.203 32.3125 56.6784 32.5298 56.2916 32.9166C55.9048 33.3034 55.6875 33.828 55.6875 34.375H59.8125ZM48.125 15.8125C50.0995 15.8125 51.425 15.8125 52.4343 15.917C53.4105 16.016 53.8615 16.192 54.1613 16.3928L56.452 12.9608C55.363 12.2348 54.1558 11.946 52.8523 11.814C51.5845 11.6848 50.0143 11.6875 48.125 11.6875V15.8125ZM59.8125 23.375C59.8125 21.4858 59.8125 19.9155 59.686 18.6478C59.554 17.347 59.2653 16.137 58.5365 15.048L55.1073 17.3415C55.308 17.6385 55.484 18.0895 55.583 19.0658C55.6848 20.075 55.6875 21.4033 55.6875 23.375H59.8125ZM54.1613 16.3928C54.5389 16.6494 54.8543 16.9638 55.1073 17.3415L58.5365 15.048C57.9865 14.223 57.277 13.5135 56.452 12.9608L54.1613 16.3928ZM55.6875 34.375V60.5H59.8125V34.375H55.6875ZM10.3125 46.75C10.3125 46.203 10.0952 45.6784 9.70841 45.2916C9.32162 44.9048 8.79701 44.6875 8.25 44.6875C7.703 44.6875 7.17839 44.9048 6.7916 45.2916C6.4048 45.6784 6.1875 46.203 6.1875 46.75H10.3125ZM6.1875 35.75C6.1875 36.297 6.4048 36.8216 6.7916 37.2084C7.17839 37.5952 7.703 37.8125 8.25 37.8125C8.79701 37.8125 9.32162 37.5952 9.70841 37.2084C10.0952 36.8216 10.3125 36.297 10.3125 35.75H6.1875ZM17.875 11.6875C15.9858 11.6875 14.4155 11.6875 13.1478 11.814C11.847 11.946 10.637 12.2348 9.548 12.9608L11.8415 16.3928C12.1385 16.192 12.5895 16.016 13.5658 15.917C14.575 15.8153 15.9033 15.8125 17.875 15.8125V11.6875ZM10.3125 23.375C10.3125 21.4005 10.3125 20.075 10.417 19.0658C10.516 18.0895 10.692 17.6385 10.8928 17.3415L7.46075 15.048C6.73475 16.137 6.446 17.347 6.314 18.6478C6.18475 19.9155 6.1875 21.4858 6.1875 23.375H10.3125ZM9.548 12.9608C8.7239 13.5162 8.01511 14.2232 7.46075 15.048L10.8928 17.3415C11.1463 16.9682 11.4682 16.6463 11.8415 16.3928L9.548 12.9608ZM6.1875 46.75V60.5H10.3125V46.75H6.1875ZM6.1875 23.375V35.75H10.3125V23.375H6.1875Z" fill="#6B5CE7"/>
<path d="M27.5 41.25H28.875M38.5 41.25H34.375" stroke="#6B5CE7" stroke-width="4.125" stroke-linecap="round"/>
</svg>
